# xmcd
#
# Track frame offsets:
#	150
#	19338
#	42043
#	59355
#	78704
#	98039
#	113967
#	132428
#	152011
#	168497
#	189040
#	212173
#	231210
#	254978
#	270678
#	289914
#	303627
#
# Disc length: 4490 seconds
#
# Revision: 1
# Processed by: cddbd v1.5.2PL0 Copyright (c) Steve Scherf et al.
# Submitted via: audiograbber 1.83.01
#
DISCID=fa118811
DTITLE=Sonic Seducer - Cold Hands Seduction Vol. 131 - 06-2012
DYEAR=2012
DGENRE=Alternative
TTITLE0=Oomph! - Zwei Schritte vor (Soman-Remix) [Exklusiv]
TTITLE1=In Extremo - In diesem Licht (Live) [Exklusiv]
TTITLE2=Peter Heppner - God Smoked
TTITLE3=Soulsavers feat. Dave Gahan - The Longest Day
TTITLE4=Garbage - Battle In Me
TTITLE5=Ewigheim - Morgenrot
TTITLE6=Steinkind - Weil nur hier oben
TTITLE7=Assemblage 23 - The Noise Inside My Head
TTITLE8=Ostrich - Prepare To Fall
TTITLE9=Stray - All I Wanted
TTITLE10=Model Kaos - Emotionless
TTITLE11=[x]-Rx - Hit The Drums
TTITLE12=Freakangel - Parasite
TTITLE13=Nano Infect - Evil Supreme (Sex and Violet)
TTITLE14=Alien Vampires - Clubbers Die Younger
TTITLE15=Nomenclatura - Stitch Me (Wamb Mix)
TTITLE16=The Pirate Ship Quintet - Horse Manifesto
EXTD=
EXTT0=
EXTT1=
EXTT2=
EXTT3=
EXTT4=
EXTT5=
EXTT6=
EXTT7=
EXTT8=
EXTT9=
EXTT10=
EXTT11=
EXTT12=
EXTT13=
EXTT14=
EXTT15=
EXTT16=
PLAYORDER=
